<svg width="392.495" height="392.495" xmlns="http://www.w3.org/2000/svg" xml:space="preserve" version="1.1">

 <g>
  <title>Layer 1</title>
  <g id="svg_1">
   <path id="svg_2" fill="#FFFFFF" d="m263.079,291.922l-12.994,0c-14.222,12.929 -28.444,24.76 -42.667,35.362l0,33.875c22.691,-6.4 42.667,-32.518 55.661,-69.237z"/>
   <path id="svg_3" fill="#FFFFFF" d="m255.58,40.706c12.541,15.451 22.949,35.749 30.513,59.604l46.222,0c-18.941,-26.764 -45.575,-47.709 -76.735,-59.604z"/>
   <path id="svg_4" fill="#FFFFFF" d="m207.354,299.809c3.168,-2.521 6.4,-5.172 9.568,-7.887l-9.568,0l0,7.887z"/>
   <path id="svg_5" fill="#FFFFFF" d="m207.354,31.397l0,68.848l55.531,0c-12.929,-36.46 -32.905,-62.383 -55.531,-68.848z"/>
   <path id="svg_6" fill="#FFFFFF" d="m207.354,185.191l70.853,0c-0.776,-22.432 -3.879,-43.83 -8.727,-63.16l-62.125,0l0,63.16l-0.001,0z"/>
   <path id="svg_7" fill="#FFFFFF" d="m286.287,291.922c-7.628,23.984 -18.166,44.412 -30.772,59.992c31.289,-11.895 58.053,-32.97 77.059,-59.992l-46.287,0z"/>
   <path id="svg_8" fill="#FFFFFF" d="m292.041,122.161c4.461,19.459 7.24,40.727 7.887,63.16l16.679,0c13.059,-18.23 24.178,-36.331 32.905,-53.85c-1.293,-3.168 -2.715,-6.271 -4.267,-9.244l-53.204,0l0,-0.066z"/>
   <path id="svg_9" fill="#FFFFFF" d="m358.95,160.367c-4.719,8.275 -9.826,16.549 -15.321,24.824l18.877,0c-0.518,-8.404 -1.746,-16.679 -3.556,-24.824z"/>
   <path id="svg_10" fill="#FFFFFF" d="m300.186,206.977l-0.129,0c0,0.065 0,0.129 0,0.129s0,-0.065 0.129,-0.129z"/>
   <path id="svg_11" fill="#FFFFFF" d="m256.227,255.979c6.788,-6.788 13.382,-13.77 19.717,-20.687c1.164,-9.18 1.939,-18.618 2.327,-28.251l-70.917,0l0,63.16l34.133,0c4.978,-4.655 9.827,-9.374 14.74,-14.222z"/>
   <path id="svg_12" fill="#FFFFFF" d="m185.568,122.161l-62.125,0c-4.848,19.329 -7.952,40.663 -8.727,63.16l70.853,0l0,-63.16l-0.001,0z"/>
   <path id="svg_13" fill="#FFFFFF" d="m60.606,100.375l46.222,0c7.628,-23.79 18.101,-44.154 30.513,-59.604c-31.03,11.83 -57.728,32.775 -76.735,59.604z"/>
   <path id="svg_14" fill="#FFFFFF" d="m30.481,185.191l62.513,0c0.711,-22.432 3.426,-43.636 7.887,-63.16l-53.333,0c-9.632,19.33 -15.58,40.663 -17.067,63.16z"/>
   <path id="svg_15" fill="#FFFFFF" d="m100.817,270.136c-4.461,-19.459 -7.176,-40.727 -7.822,-63.16l-62.578,0c1.487,22.562 7.434,43.895 16.937,63.16l53.463,0l0,0z"/>
   <path id="svg_16" fill="#FFFFFF" d="m130.101,100.375l55.531,0l0,-68.978c-22.626,6.465 -42.537,32.388 -55.531,68.978z"/>
   <path id="svg_17" fill="#FFFFFF" d="m185.568,206.977l-70.853,0c0.776,22.432 3.814,43.766 8.663,63.16l62.19,0l0,-63.16z"/>
   <path id="svg_18" fill="#FFFFFF" d="m296.695,244.989c-1.228,8.598 -2.715,17.002 -4.59,25.083l53.398,0c9.568,-19.265 15.515,-40.598 16.937,-63.16l-34.392,0c-9.438,12.735 -19.846,25.406 -31.353,38.077z"/>
   <path id="svg_19" fill="#FFFFFF" d="m185.568,342.928c-5.43,3.62 -10.667,6.982 -15.968,10.214c5.107,3.814 10.537,6.465 15.968,8.016l0,-18.23z"/>
   <path id="svg_20" fill="#FFFFFF" d="m185.568,291.922l-55.661,0c6.335,18.036 14.481,33.487 23.661,45.253c10.343,-6.077 21.01,-13.059 32,-20.881l0,-24.372l0,0z"/>
   <path id="svg_21" fill="#FFFFFF" d="m60.413,291.922c17.778,25.212 42.343,45.123 70.982,57.406c1.034,-0.453 1.939,-1.034 2.909,-1.487c-11.184,-14.998 -20.622,-33.939 -27.669,-55.919l-46.222,0z"/>
  </g>
  <path id="svg_22" fill="#194F82" d="m376.728,15.946c-22.432,-22.432 -63.612,-21.075 -116.17,3.297c-20.04,-7.24 -41.568,-11.313 -64.129,-11.313c-103.758,0.065 -188.186,84.558 -188.186,188.315c0,22.497 4.008,44.154 11.313,64.129c-24.436,52.622 -26.44,94.578 -3.362,116.234c30.772,28.832 83.135,12.671 115.911,-3.426c20.105,7.37 41.826,11.378 64.388,11.378c103.758,0 188.25,-84.428 188.25,-188.251c0,-22.497 -3.943,-44.024 -11.184,-64.065c24.825,-54.366 24.567,-94.9 3.169,-116.298zm-15.386,15.451c12.929,12.929 12.671,39.499 -0.129,73.891c-17.131,-30.901 -42.731,-56.501 -73.632,-73.632c34.068,-12.736 60.961,-13.059 73.761,-0.259zm-44.671,153.794l-16.679,0c-0.711,-22.432 -3.426,-43.636 -7.887,-63.16l53.333,0c1.552,3.038 2.909,6.077 4.267,9.244c-8.791,17.585 -19.975,35.75 -33.034,53.916zm42.279,-24.824c1.745,8.016 2.909,16.291 3.556,24.824l-18.877,0c5.624,-8.275 10.602,-16.55 15.321,-24.824zm-58.764,46.61c-0.065,0.065 -0.065,0.129 -0.129,0.129c0,-0.065 0,-0.129 0,-0.129l0.129,0zm-14.028,-106.602c-7.628,-23.79 -18.101,-44.154 -30.513,-59.604c31.16,11.895 57.794,32.84 76.735,59.604l-46.222,0zm-78.804,169.761l0,-63.16l70.853,0c-0.323,9.632 -1.164,19.071 -2.327,28.251c-6.335,6.982 -12.929,13.899 -19.717,20.687c-4.848,4.848 -9.762,9.568 -14.61,14.158l-34.198,0l0,0.064l-0.001,0zm9.697,21.786c-3.168,2.715 -6.4,5.301 -9.568,7.887l0,-7.887l9.568,0zm52.428,-169.761c4.848,19.329 7.952,40.663 8.727,63.16l-70.853,0l0,-63.16l62.126,0l0,0zm-62.125,-21.786l0,-68.978c22.562,6.4 42.602,32.388 55.531,68.848l-55.531,0l0,0.13zm0,226.909c14.222,-10.667 28.444,-22.497 42.667,-35.362l12.994,0c-12.994,36.719 -32.97,62.772 -55.661,69.236l0,-33.874zm48.162,24.565c12.606,-15.515 23.079,-36.008 30.772,-59.992l46.352,0c-19.007,27.023 -45.836,48.097 -77.124,59.992zm90.117,-81.713l-53.398,0c1.875,-8.016 3.297,-16.485 4.59,-25.083c11.507,-12.735 21.915,-25.406 31.418,-38.012l34.392,0c-1.487,22.497 -7.435,43.831 -17.002,63.095zm-192,67.039c-9.244,-11.83 -17.325,-27.281 -23.661,-45.253l55.661,0l0,24.372c-10.926,7.822 -21.592,14.804 -32,20.881zm31.935,5.753l0,18.23c-5.495,-1.552 -10.796,-4.331 -15.968,-8.016c5.301,-3.297 10.667,-6.658 15.968,-10.214zm-51.135,4.913c-1.034,0.517 -2.004,1.034 -2.909,1.487c-28.703,-12.218 -53.269,-32.259 -71.046,-57.406l46.352,0c6.98,21.98 16.354,40.921 27.603,55.919zm-11.055,-77.705c-4.848,-19.329 -7.887,-40.663 -8.663,-63.16l70.853,0l0,63.16l-62.19,0l0,0zm-8.598,-84.945c0.776,-22.432 3.879,-43.83 8.727,-63.16l62.125,0l0,63.16l-70.852,0l0,0zm-7.951,-84.816l-46.223,0c18.941,-26.764 45.576,-47.774 76.735,-59.604c-12.411,15.45 -22.884,35.749 -30.512,59.604zm-5.948,21.786c-4.461,19.459 -7.24,40.727 -7.887,63.16l-62.513,0c1.487,-22.562 7.499,-43.895 17.067,-63.16l53.333,0l0,0zm-7.887,84.816c0.711,22.432 3.426,43.636 7.822,63.16l-53.397,0c-9.568,-19.265 -15.515,-40.598 -16.937,-63.16l62.512,0l0,0zm92.574,-106.602l-55.531,0c13.059,-36.525 32.97,-62.513 55.531,-68.913l0,68.913zm-153.923,260.784c-12.8,-12.8 -12.541,-39.693 0.129,-73.826c17.067,30.836 42.602,56.307 73.309,73.503c-34.262,12.67 -60.897,12.929 -73.438,0.323z"/>
  <g id="svg_23">
   <path id="svg_24" fill="#56ACE0" d="m300.186,206.977l-0.129,0c0,0.065 0,0.129 0,0.129s0,-0.065 0.129,-0.129z"/>
   <path id="svg_25" fill="#56ACE0" d="m276.914,76.068c3.426,7.564 6.594,15.709 9.244,24.178l18.36,0c-8.146,-9.116 -17.39,-17.261 -27.604,-24.178z"/>
   <path id="svg_26" fill="#56ACE0" d="m292.041,122.161c4.461,19.459 7.24,40.727 7.887,63.16l16.679,0c6.853,-9.568 13.123,-19.071 18.877,-28.509c-3.491,-12.283 -8.598,-23.855 -14.998,-34.651l-28.445,0l0,0z"/>
   <path id="svg_27" fill="#56ACE0" d="m263.079,291.922l-12.994,0c-14.222,12.929 -28.444,24.76 -42.667,35.362l0,13.123c12.024,-0.905 23.725,-3.232 34.78,-6.982c8.081,-11.248 15.063,-25.277 20.881,-41.503z"/>
   <path id="svg_28" fill="#56ACE0" d="m185.568,122.161l-62.125,0c-4.848,19.329 -7.952,40.663 -8.727,63.16l70.853,0l0,-63.16l-0.001,0z"/>
   <path id="svg_29" fill="#56ACE0" d="m130.101,100.375l55.531,0l0,-48.227c-12.024,0.905 -23.725,3.232 -34.78,6.982c-8.015,11.184 -15.126,25.148 -20.751,41.245z"/>
   <path id="svg_30" fill="#56ACE0" d="m116.202,316.488c-3.491,-7.758 -6.659,-15.903 -9.438,-24.566l-18.618,0c8.275,9.309 17.648,17.584 28.056,24.566z"/>
   <path id="svg_31" fill="#56ACE0" d="m185.568,316.359l0,-24.372l-55.661,0c5.689,16.226 12.8,30.319 20.945,41.568c1.939,0.646 3.879,1.228 5.818,1.745c9.439,-5.689 19.072,-11.96 28.898,-18.941z"/>
   <path id="svg_32" fill="#56ACE0" d="m123.378,270.136l62.19,0l0,-63.16l-70.853,0c0.776,22.433 3.879,43.831 8.663,63.16z"/>
   <path id="svg_33" fill="#56ACE0" d="m100.817,270.136c-4.461,-19.459 -7.176,-40.727 -7.822,-63.16l-40.728,0c1.681,22.949 8.727,44.347 19.846,63.16l28.704,0l0,0z"/>
   <path id="svg_34" fill="#56ACE0" d="m88.469,100.375l18.36,0c2.715,-8.598 5.883,-16.614 9.244,-24.178c-10.149,6.788 -19.523,14.933 -27.604,24.178z"/>
   <path id="svg_35" fill="#56ACE0" d="m207.354,100.375l55.531,0c-5.689,-16.097 -12.735,-30.061 -20.816,-41.244c-11.055,-3.685 -22.691,-6.077 -34.78,-6.982l0,48.226l0.065,0z"/>
   <path id="svg_36" fill="#56ACE0" d="m92.994,185.191c0.711,-22.432 3.426,-43.636 7.887,-63.16l-28.509,0c-11.184,18.683 -18.295,40.21 -20.105,63.16l40.727,0l0,0z"/>
   <path id="svg_37" fill="#56ACE0" d="m304.905,291.922l-18.618,0c-2.78,8.663 -5.947,16.873 -9.438,24.566c10.343,-6.982 19.782,-15.257 28.056,-24.566z"/>
   <path id="svg_38" fill="#56ACE0" d="m207.354,291.922l0,7.887c3.168,-2.521 6.4,-5.172 9.568,-7.887l-9.568,0z"/>
   <path id="svg_39" fill="#56ACE0" d="m328.114,206.977c-9.503,12.606 -19.911,25.277 -31.418,38.012c-1.228,8.598 -2.715,17.002 -4.59,25.083l28.574,0c11.119,-18.683 18.166,-40.21 19.846,-63.16l-12.412,0.065l0,0z"/>
   <path id="svg_40" fill="#56ACE0" d="m256.227,255.979c6.788,-6.788 13.382,-13.77 19.717,-20.687c1.164,-9.18 1.939,-18.618 2.327,-28.251l-70.917,0l0,63.16l34.133,0c4.978,-4.655 9.827,-9.374 14.74,-14.222z"/>
   <path id="svg_41" fill="#56ACE0" d="m269.479,122.161l-62.125,0l0,63.095l70.853,0c-0.776,-22.497 -3.879,-43.766 -8.728,-63.095z"/>
  </g>
  <g id="svg_42"/>
  <g id="svg_43"/>
  <g id="svg_44"/>
  <g id="svg_45"/>
  <g id="svg_46"/>
  <g id="svg_47"/>
  <g id="svg_48"/>
  <g id="svg_49"/>
  <g id="svg_50"/>
  <g id="svg_51"/>
  <g id="svg_52"/>
  <g id="svg_53"/>
  <g id="svg_54"/>
  <g id="svg_55"/>
  <g id="svg_56"/>
  <ellipse ry="46.5" rx="46.5" id="svg_57" cy="344.2475" cx="339.7475" stroke="#000" fill="#ff0008"/>
 </g>
</svg>